<svg xmlns="http://www.w3.org/2000/svg" width="745" height="161" viewBox="0 0 745 161"><rect width="100%" height="100%" fill="#FFFFFF"/><text x="8" y="16" fill="#000000" font-family="Arial, sans-serif" font-size="12">WeRead 2026 WeRead: 256h 48m, 145 active days</text><g font-family="Arial, sans-serif"><text x="38" y="26" fill="#000000" font-size="10">Jan</text><text x="103" y="26" fill="#000000" font-size="10">Feb</text><text x="155" y="26" fill="#000000" font-size="10">Mar</text><text x="207" y="26" fill="#000000" font-size="10">Apr</text><text x="259" y="26" fill="#000000" font-size="10">May</text><text x="324" y="26" fill="#000000" font-size="10">Jun</text><text x="376" y="26" fill="#000000" font-size="10">Jul</text><text x="428" y="26" fill="#000000" font-size="10">Aug</text><text x="493" y="26" fill="#000000" font-size="10">Sep</text><text x="545" y="26" fill="#000000" font-size="10">Oct</text><text x="610" y="26" fill="#000000" font-size="10">Nov</text><text x="662" y="26" fill="#000000" font-size="10">Dec</text><text x="8" y="58" fill="#000000" font-size="9">Mon</text><text x="8" y="84" fill="#000000" font-size="9">Wed</text><text x="8" y="110" fill="#000000" font-size="9">Fri</text><rect x="38" y="36" width="10" height="10" rx="2" ry="2" fill="#FFFFFF"><title>2025-12-28: 0m</title></rect><rect x="38" y="49" width="10" height="10" rx="2" ry="2" fill="#FFFFFF"><title>2025-12-29: 0m</title></rect><rect x="38" y="62" width="10" height="10" rx="2" ry="2" fill="#FFFFFF"><title>2025-12-30: 0m</title></rect><rect x="38" y="75" width="10" height="10" rx="2" ry="2" fill="#FFFFFF"><title>2025-12-31: 0m</title></rect><rect x="38" y="88" width="10" height="10" rx="2" ry="2" fill="#EBEDF0"><title>2026-01-01: 0m</title></rect><rect x="38" y="101" width="10" height="10" rx="2" ry="2" fill="#2F7D32"><title>2026-01-02: 1h 10m</title></rect><rect x="38" y="114" width="10" height="10" rx="2" ry="2" fill="#549F57"><title>2026-01-03: 44m</title></rect><rect x="51" y="36" width="10" height="10" rx="2" ry="2" fill="#69C16E"><title>2026-01-04: 16m</title></rect><rect x="51" y="49" width="10" height="10" rx="2" ry="2" fill="#ACE7AE"><title>2026-01-05: 1m</title></rect><rect x="51" y="62" width="10" height="10" rx="2" ry="2" fill="#69C16E"><title>2026-01-06: 15m</title></rect><rect x="51" y="75" width="10" height="10" rx="2" ry="2" fill="#ACE7AE"><title>2026-01-07: 3m</title></rect><rect x="51" y="88" width="10" height="10" rx="2" ry="2" fill="#ACE7AE"><title>2026-01-08: 1m</title></rect><rect x="51" y="101" width="10" height="10" rx="2" ry="2" fill="#69C16E"><title>2026-01-09: 28m</title></rect><rect x="51" y="114" width="10" height="10" rx="2" ry="2" fill="#2F7D32"><title>2026-01-10: 1h 54m</title></rect><rect x="64" y="36" width="10" height="10" rx="2" ry="2" fill="#ACE7AE"><title>2026-01-11: 7m</title></rect><rect x="64" y="49" width="10" height="10" rx="2" ry="2" fill="#69C16E"><title>2026-01-12: 28m</title></rect><rect x="64" y="62" width="10" height="10" rx="2" ry="2" fill="#69C16E"><title>2026-01-13: 26m</title></rect><rect x="64" y="75" width="10" height="10" rx="2" ry="2" fill="#69C16E"><title>2026-01-14: 11m</title></rect><rect x="64" y="88" width="10" height="10" rx="2" ry="2" fill="#ACE7AE"><title>2026-01-15: 1m</title></rect><rect x="64" y="101" width="10" height="10" rx="2" ry="2" fill="#69C16E"><title>2026-01-16: 10m</title></rect><rect x="64" y="114" width="10" height="10" rx="2" ry="2" fill="#ACE7AE"><title>2026-01-17: 2m</title></rect><rect x="77" y="36" width="10" height="10" rx="2" ry="2" fill="#ACE7AE"><title>2026-01-18: 1m</title></rect><rect x="77" y="49" width="10" height="10" rx="2" ry="2" fill="#ACE7AE"><title>2026-01-19: 7m</title></rect><rect x="77" y="62" width="10" height="10" rx="2" ry="2" fill="#EBEDF0"><title>2026-01-20: 0m</title></rect><rect x="77" y="75" width="10" height="10" rx="2" ry="2" fill="#ACE7AE"><title>2026-01-21: 0m</title></rect><rect x="77" y="88" width="10" height="10" rx="2" ry="2" fill="#EBEDF0"><title>2026-01-22: 0m</title></rect><rect x="77" y="101" width="10" height="10" rx="2" ry="2" fill="#EBEDF0"><title>2026-01-23: 0m</title></rect><rect x="77" y="114" width="10" height="10" rx="2" ry="2" fill="#EBEDF0"><title>2026-01-24: 0m</title></rect><rect x="90" y="36" width="10" height="10" rx="2" ry="2" fill="#EBEDF0"><title>2026-01-25: 0m</title></rect><rect x="90" y="49" width="10" height="10" rx="2" ry="2" fill="#EBEDF0"><title>2026-01-26: 0m</title></rect><rect x="90" y="62" width="10" height="10" rx="2" ry="2" fill="#EBEDF0"><title>2026-01-27: 0m</title></rect><rect x="90" y="75" width="10" height="10" rx="2" ry="2" fill="#EBEDF0"><title>2026-01-28: 0m</title></rect><rect x="90" y="88" width="10" height="10" rx="2" ry="2" fill="#EBEDF0"><title>2026-01-29: 0m</title></rect><rect x="90" y="101" width="10" height="10" rx="2" ry="2" fill="#EBEDF0"><title>2026-01-30: 0m</title></rect><rect x="90" y="114" width="10" height="10" rx="2" ry="2" fill="#EBEDF0"><title>2026-01-31: 0m</title></rect><rect x="103" y="36" width="10" height="10" rx="2" ry="2" fill="#549F57"><title>2026-02-01: 46m</title></rect><rect x="103" y="49" width="10" height="10" rx="2" ry="2" fill="#549F57"><title>2026-02-02: 40m</title></rect><rect x="103" y="62" width="10" height="10" rx="2" ry="2" fill="#ACE7AE"><title>2026-02-03: 2m</title></rect><rect x="103" y="75" width="10" height="10" rx="2" ry="2" fill="#EBEDF0"><title>2026-02-04: 0m</title></rect><rect x="103" y="88" width="10" height="10" rx="2" ry="2" fill="#549F57"><title>2026-02-05: 48m</title></rect><rect x="103" y="101" width="10" height="10" rx="2" ry="2" fill="#2F7D32"><title>2026-02-06: 2h 25m</title></rect><rect x="103" y="114" width="10" height="10" rx="2" ry="2" fill="#69C16E"><title>2026-02-07: 20m</title></rect><rect x="116" y="36" width="10" height="10" rx="2" ry="2" fill="#EBEDF0"><title>2026-02-08: 0m</title></rect><rect x="116" y="49" width="10" height="10" rx="2" ry="2" fill="#EBEDF0"><title>2026-02-09: 0m</title></rect><rect x="116" y="62" width="10" height="10" rx="2" ry="2" fill="#EBEDF0"><title>2026-02-10: 0m</title></rect><rect x="116" y="75" width="10" height="10" rx="2" ry="2" fill="#EBEDF0"><title>2026-02-11: 0m</title></rect><rect x="116" y="88" width="10" height="10" rx="2" ry="2" fill="#EBEDF0"><title>2026-02-12: 0m</title></rect><rect x="116" y="101" width="10" height="10" rx="2" ry="2" fill="#ACE7AE"><title>2026-02-13: 1m</title></rect><rect x="116" y="114" width="10" height="10" rx="2" ry="2" fill="#EBEDF0"><title>2026-02-14: 0m</title></rect><rect x="129" y="36" width="10" height="10" rx="2" ry="2" fill="#549F57"><title>2026-02-15: 33m</title></rect><rect x="129" y="49" width="10" height="10" rx="2" ry="2" fill="#69C16E"><title>2026-02-16: 21m</title></rect><rect x="129" y="62" width="10" height="10" rx="2" ry="2" fill="#2F7D32"><title>2026-02-17: 5h 29m</title></rect><rect x="129" y="75" width="10" height="10" rx="2" ry="2" fill="#2F7D32"><title>2026-02-18: 7h 45m</title></rect><rect x="129" y="88" width="10" height="10" rx="2" ry="2" fill="#2F7D32"><title>2026-02-19: 11h 44m</title></rect><rect x="129" y="101" width="10" height="10" rx="2" ry="2" fill="#2F7D32"><title>2026-02-20: 3h 54m</title></rect><rect x="129" y="114" width="10" height="10" rx="2" ry="2" fill="#2F7D32"><title>2026-02-21: 3h 30m</title></rect><rect x="142" y="36" width="10" height="10" rx="2" ry="2" fill="#2F7D32"><title>2026-02-22: 3h 58m</title></rect><rect x="142" y="49" width="10" height="10" rx="2" ry="2" fill="#2F7D32"><title>2026-02-23: 9h 17m</title></rect><rect x="142" y="62" width="10" height="10" rx="2" ry="2" fill="#2F7D32"><title>2026-02-24: 6h 28m</title></rect><rect x="142" y="75" width="10" height="10" rx="2" ry="2" fill="#2F7D32"><title>2026-02-25: 4h 50m</title></rect><rect x="142" y="88" width="10" height="10" rx="2" ry="2" fill="#2F7D32"><title>2026-02-26: 4h 30m</title></rect><rect x="142" y="101" width="10" height="10" rx="2" ry="2" fill="#2F7D32"><title>2026-02-27: 1h 51m</title></rect><rect x="142" y="114" width="10" height="10" rx="2" ry="2" fill="#2F7D32"><title>2026-02-28: 3h 6m</title></rect><rect x="155" y="36" width="10" height="10" rx="2" ry="2" fill="#549F57"><title>2026-03-01: 33m</title></rect><rect x="155" y="49" width="10" height="10" rx="2" ry="2" fill="#69C16E"><title>2026-03-02: 27m</title></rect><rect x="155" y="62" width="10" height="10" rx="2" ry="2" fill="#549F57"><title>2026-03-03: 33m</title></rect><rect x="155" y="75" width="10" height="10" rx="2" ry="2" fill="#69C16E"><title>2026-03-04: 20m</title></rect><rect x="155" y="88" width="10" height="10" rx="2" ry="2" fill="#549F57"><title>2026-03-05: 32m</title></rect><rect x="155" y="101" width="10" height="10" rx="2" ry="2" fill="#ACE7AE"><title>2026-03-06: 6m</title></rect><rect x="155" y="114" width="10" height="10" rx="2" ry="2" fill="#69C16E"><title>2026-03-07: 23m</title></rect><rect x="168" y="36" width="10" height="10" rx="2" ry="2" fill="#EBEDF0"><title>2026-03-08: 0m</title></rect><rect x="168" y="49" width="10" height="10" rx="2" ry="2" fill="#ACE7AE"><title>2026-03-09: 1m</title></rect><rect x="168" y="62" width="10" height="10" rx="2" ry="2" fill="#2F7D32"><title>2026-03-10: 1h 54m</title></rect><rect x="168" y="75" width="10" height="10" rx="2" ry="2" fill="#549F57"><title>2026-03-11: 43m</title></rect><rect x="168" y="88" width="10" height="10" rx="2" ry="2" fill="#ACE7AE"><title>2026-03-12: 3m</title></rect><rect x="168" y="101" width="10" height="10" rx="2" ry="2" fill="#ACE7AE"><title>2026-03-13: 9m</title></rect><rect x="168" y="114" width="10" height="10" rx="2" ry="2" fill="#ACE7AE"><title>2026-03-14: 0m</title></rect><rect x="181" y="36" width="10" height="10" rx="2" ry="2" fill="#549F57"><title>2026-03-15: 50m</title></rect><rect x="181" y="49" width="10" height="10" rx="2" ry="2" fill="#549F57"><title>2026-03-16: 52m</title></rect><rect x="181" y="62" width="10" height="10" rx="2" ry="2" fill="#2F7D32"><title>2026-03-17: 2h 16m</title></rect><rect x="181" y="75" width="10" height="10" rx="2" ry="2" fill="#ACE7AE"><title>2026-03-18: 0m</title></rect><rect x="181" y="88" width="10" height="10" rx="2" ry="2" fill="#69C16E"><title>2026-03-19: 10m</title></rect><rect x="181" y="101" width="10" height="10" rx="2" ry="2" fill="#69C16E"><title>2026-03-20: 17m</title></rect><rect x="181" y="114" width="10" height="10" rx="2" ry="2" fill="#ACE7AE"><title>2026-03-21: 5m</title></rect><rect x="194" y="36" width="10" height="10" rx="2" ry="2" fill="#69C16E"><title>2026-03-22: 27m</title></rect><rect x="194" y="49" width="10" height="10" rx="2" ry="2" fill="#ACE7AE"><title>2026-03-23: 1m</title></rect><rect x="194" y="62" width="10" height="10" rx="2" ry="2" fill="#549F57"><title>2026-03-24: 52m</title></rect><rect x="194" y="75" width="10" height="10" rx="2" ry="2" fill="#69C16E"><title>2026-03-25: 15m</title></rect><rect x="194" y="88" width="10" height="10" rx="2" ry="2" fill="#EBEDF0"><title>2026-03-26: 0m</title></rect><rect x="194" y="101" width="10" height="10" rx="2" ry="2" fill="#EBEDF0"><title>2026-03-27: 0m</title></rect><rect x="194" y="114" width="10" height="10" rx="2" ry="2" fill="#EBEDF0"><title>2026-03-28: 0m</title></rect><rect x="207" y="36" width="10" height="10" rx="2" ry="2" fill="#EBEDF0"><title>2026-03-29: 0m</title></rect><rect x="207" y="49" width="10" height="10" rx="2" ry="2" fill="#EBEDF0"><title>2026-03-30: 0m</title></rect><rect x="207" y="62" width="10" height="10" rx="2" ry="2" fill="#EBEDF0"><title>2026-03-31: 0m</title></rect><rect x="207" y="75" width="10" height="10" rx="2" ry="2" fill="#EBEDF0"><title>2026-04-01: 0m</title></rect><rect x="207" y="88" width="10" height="10" rx="2" ry="2" fill="#EBEDF0"><title>2026-04-02: 0m</title></rect><rect x="207" y="101" width="10" height="10" rx="2" ry="2" fill="#EBEDF0"><title>2026-04-03: 0m</title></rect><rect x="207" y="114" width="10" height="10" rx="2" ry="2" fill="#EBEDF0"><title>2026-04-04: 0m</title></rect><rect x="220" y="36" width="10" height="10" rx="2" ry="2" fill="#EBEDF0"><title>2026-04-05: 0m</title></rect><rect x="220" y="49" width="10" height="10" rx="2" ry="2" fill="#EBEDF0"><title>2026-04-06: 0m</title></rect><rect x="220" y="62" width="10" height="10" rx="2" ry="2" fill="#EBEDF0"><title>2026-04-07: 0m</title></rect><rect x="220" y="75" width="10" height="10" rx="2" ry="2" fill="#ACE7AE"><title>2026-04-08: 1m</title></rect><rect x="220" y="88" width="10" height="10" rx="2" ry="2" fill="#EBEDF0"><title>2026-04-09: 0m</title></rect><rect x="220" y="101" width="10" height="10" rx="2" ry="2" fill="#EBEDF0"><title>2026-04-10: 0m</title></rect><rect x="220" y="114" width="10" height="10" rx="2" ry="2" fill="#EBEDF0"><title>2026-04-11: 0m</title></rect><rect x="233" y="36" width="10" height="10" rx="2" ry="2" fill="#EBEDF0"><title>2026-04-12: 0m</title></rect><rect x="233" y="49" width="10" height="10" rx="2" ry="2" fill="#ACE7AE"><title>2026-04-13: 0m</title></rect><rect x="233" y="62" width="10" height="10" rx="2" ry="2" fill="#EBEDF0"><title>2026-04-14: 0m</title></rect><rect x="233" y="75" width="10" height="10" rx="2" ry="2" fill="#EBEDF0"><title>2026-04-15: 0m</title></rect><rect x="233" y="88" width="10" height="10" rx="2" ry="2" fill="#EBEDF0"><title>2026-04-16: 0m</title></rect><rect x="233" y="101" width="10" height="10" rx="2" ry="2" fill="#EBEDF0"><title>2026-04-17: 0m</title></rect><rect x="233" y="114" width="10" height="10" rx="2" ry="2" fill="#EBEDF0"><title>2026-04-18: 0m</title></rect><rect x="246" y="36" width="10" height="10" rx="2" ry="2" fill="#EBEDF0"><title>2026-04-19: 0m</title></rect><rect x="246" y="49" width="10" height="10" rx="2" ry="2" fill="#EBEDF0"><title>2026-04-20: 0m</title></rect><rect x="246" y="62" width="10" height="10" rx="2" ry="2" fill="#ACE7AE"><title>2026-04-21: 0m</title></rect><rect x="246" y="75" width="10" height="10" rx="2" ry="2" fill="#EBEDF0"><title>2026-04-22: 0m</title></rect><rect x="246" y="88" width="10" height="10" rx="2" ry="2" fill="#EBEDF0"><title>2026-04-23: 0m</title></rect><rect x="246" y="101" width="10" height="10" rx="2" ry="2" fill="#EBEDF0"><title>2026-04-24: 0m</title></rect><rect x="246" y="114" width="10" height="10" rx="2" ry="2" fill="#EBEDF0"><title>2026-04-25: 0m</title></rect><rect x="259" y="36" width="10" height="10" rx="2" ry="2" fill="#EBEDF0"><title>2026-04-26: 0m</title></rect><rect x="259" y="49" width="10" height="10" rx="2" ry="2" fill="#549F57"><title>2026-04-27: 33m</title></rect><rect x="259" y="62" width="10" height="10" rx="2" ry="2" fill="#EBEDF0"><title>2026-04-28: 0m</title></rect><rect x="259" y="75" width="10" height="10" rx="2" ry="2" fill="#EBEDF0"><title>2026-04-29: 0m</title></rect><rect x="259" y="88" width="10" height="10" rx="2" ry="2" fill="#ACE7AE"><title>2026-04-30: 4m</title></rect><rect x="259" y="101" width="10" height="10" rx="2" ry="2" fill="#2F7D32"><title>2026-05-01: 1h 51m</title></rect><rect x="259" y="114" width="10" height="10" rx="2" ry="2" fill="#2F7D32"><title>2026-05-02: 5h 10m</title></rect><rect x="272" y="36" width="10" height="10" rx="2" ry="2" fill="#2F7D32"><title>2026-05-03: 6h 25m</title></rect><rect x="272" y="49" width="10" height="10" rx="2" ry="2" fill="#2F7D32"><title>2026-05-04: 1h 28m</title></rect><rect x="272" y="62" width="10" height="10" rx="2" ry="2" fill="#549F57"><title>2026-05-05: 55m</title></rect><rect x="272" y="75" width="10" height="10" rx="2" ry="2" fill="#2F7D32"><title>2026-05-06: 1h 59m</title></rect><rect x="272" y="88" width="10" height="10" rx="2" ry="2" fill="#2F7D32"><title>2026-05-07: 1h 54m</title></rect><rect x="272" y="101" width="10" height="10" rx="2" ry="2" fill="#EBEDF0"><title>2026-05-08: 0m</title></rect><rect x="272" y="114" width="10" height="10" rx="2" ry="2" fill="#2F7D32"><title>2026-05-09: 5h 40m</title></rect><rect x="285" y="36" width="10" height="10" rx="2" ry="2" fill="#2F7D32"><title>2026-05-10: 1h 30m</title></rect><rect x="285" y="49" width="10" height="10" rx="2" ry="2" fill="#ACE7AE"><title>2026-05-11: 4m</title></rect><rect x="285" y="62" width="10" height="10" rx="2" ry="2" fill="#549F57"><title>2026-05-12: 30m</title></rect><rect x="285" y="75" width="10" height="10" rx="2" ry="2" fill="#69C16E"><title>2026-05-13: 15m</title></rect><rect x="285" y="88" width="10" height="10" rx="2" ry="2" fill="#69C16E"><title>2026-05-14: 22m</title></rect><rect x="285" y="101" width="10" height="10" rx="2" ry="2" fill="#2F7D32"><title>2026-05-15: 1h 4m</title></rect><rect x="285" y="114" width="10" height="10" rx="2" ry="2" fill="#69C16E"><title>2026-05-16: 11m</title></rect><rect x="298" y="36" width="10" height="10" rx="2" ry="2" fill="#ACE7AE"><title>2026-05-17: 3m</title></rect><rect x="298" y="49" width="10" height="10" rx="2" ry="2" fill="#549F57"><title>2026-05-18: 31m</title></rect><rect x="298" y="62" width="10" height="10" rx="2" ry="2" fill="#2F7D32"><title>2026-05-19: 3h 40m</title></rect><rect x="298" y="75" width="10" height="10" rx="2" ry="2" fill="#ACE7AE"><title>2026-05-20: 2m</title></rect><rect x="298" y="88" width="10" height="10" rx="2" ry="2" fill="#69C16E"><title>2026-05-21: 15m</title></rect><rect x="298" y="101" width="10" height="10" rx="2" ry="2" fill="#549F57"><title>2026-05-22: 49m</title></rect><rect x="298" y="114" width="10" height="10" rx="2" ry="2" fill="#2F7D32"><title>2026-05-23: 1h 37m</title></rect><rect x="311" y="36" width="10" height="10" rx="2" ry="2" fill="#2F7D32"><title>2026-05-24: 1h 1m</title></rect><rect x="311" y="49" width="10" height="10" rx="2" ry="2" fill="#2F7D32"><title>2026-05-25: 4h 11m</title></rect><rect x="311" y="62" width="10" height="10" rx="2" ry="2" fill="#2F7D32"><title>2026-05-26: 1h 3m</title></rect><rect x="311" y="75" width="10" height="10" rx="2" ry="2" fill="#2F7D32"><title>2026-05-27: 2h 6m</title></rect><rect x="311" y="88" width="10" height="10" rx="2" ry="2" fill="#2F7D32"><title>2026-05-28: 5h 39m</title></rect><rect x="311" y="101" width="10" height="10" rx="2" ry="2" fill="#2F7D32"><title>2026-05-29: 2h 50m</title></rect><rect x="311" y="114" width="10" height="10" rx="2" ry="2" fill="#2F7D32"><title>2026-05-30: 3h 23m</title></rect><rect x="324" y="36" width="10" height="10" rx="2" ry="2" fill="#2F7D32"><title>2026-05-31: 1h 17m</title></rect><rect x="324" y="49" width="10" height="10" rx="2" ry="2" fill="#549F57"><title>2026-06-01: 50m</title></rect><rect x="324" y="62" width="10" height="10" rx="2" ry="2" fill="#2F7D32"><title>2026-06-02: 5h 28m</title></rect><rect x="324" y="75" width="10" height="10" rx="2" ry="2" fill="#2F7D32"><title>2026-06-03: 1h 46m</title></rect><rect x="324" y="88" width="10" height="10" rx="2" ry="2" fill="#2F7D32"><title>2026-06-04: 2h 54m</title></rect><rect x="324" y="101" width="10" height="10" rx="2" ry="2" fill="#2F7D32"><title>2026-06-05: 4h 32m</title></rect><rect x="324" y="114" width="10" height="10" rx="2" ry="2" fill="#2F7D32"><title>2026-06-06: 2h 56m</title></rect><rect x="337" y="36" width="10" height="10" rx="2" ry="2" fill="#549F57"><title>2026-06-07: 53m</title></rect><rect x="337" y="49" width="10" height="10" rx="2" ry="2" fill="#2F7D32"><title>2026-06-08: 1h 56m</title></rect><rect x="337" y="62" width="10" height="10" rx="2" ry="2" fill="#2F7D32"><title>2026-06-09: 1h 2m</title></rect><rect x="337" y="75" width="10" height="10" rx="2" ry="2" fill="#2F7D32"><title>2026-06-10: 1h 2m</title></rect><rect x="337" y="88" width="10" height="10" rx="2" ry="2" fill="#549F57"><title>2026-06-11: 40m</title></rect><rect x="337" y="101" width="10" height="10" rx="2" ry="2" fill="#2F7D32"><title>2026-06-12: 3h 17m</title></rect><rect x="337" y="114" width="10" height="10" rx="2" ry="2" fill="#2F7D32"><title>2026-06-13: 1h 47m</title></rect><rect x="350" y="36" width="10" height="10" rx="2" ry="2" fill="#2F7D32"><title>2026-06-14: 2h 39m</title></rect><rect x="350" y="49" width="10" height="10" rx="2" ry="2" fill="#2F7D32"><title>2026-06-15: 1h 16m</title></rect><rect x="350" y="62" width="10" height="10" rx="2" ry="2" fill="#2F7D32"><title>2026-06-16: 2h 36m</title></rect><rect x="350" y="75" width="10" height="10" rx="2" ry="2" fill="#2F7D32"><title>2026-06-17: 7h 43m</title></rect><rect x="350" y="88" width="10" height="10" rx="2" ry="2" fill="#2F7D32"><title>2026-06-18: 1h 29m</title></rect><rect x="350" y="101" width="10" height="10" rx="2" ry="2" fill="#2F7D32"><title>2026-06-19: 4h 18m</title></rect><rect x="350" y="114" width="10" height="10" rx="2" ry="2" fill="#2F7D32"><title>2026-06-20: 1h 50m</title></rect><rect x="363" y="36" width="10" height="10" rx="2" ry="2" fill="#549F57"><title>2026-06-21: 51m</title></rect><rect x="363" y="49" width="10" height="10" rx="2" ry="2" fill="#ACE7AE"><title>2026-06-22: 1m</title></rect><rect x="363" y="62" width="10" height="10" rx="2" ry="2" fill="#2F7D32"><title>2026-06-23: 2h 10m</title></rect><rect x="363" y="75" width="10" height="10" rx="2" ry="2" fill="#549F57"><title>2026-06-24: 55m</title></rect><rect x="363" y="88" width="10" height="10" rx="2" ry="2" fill="#2F7D32"><title>2026-06-25: 2h 18m</title></rect><rect x="363" y="101" width="10" height="10" rx="2" ry="2" fill="#2F7D32"><title>2026-06-26: 5h 20m</title></rect><rect x="363" y="114" width="10" height="10" rx="2" ry="2" fill="#2F7D32"><title>2026-06-27: 2h 35m</title></rect><rect x="376" y="36" width="10" height="10" rx="2" ry="2" fill="#2F7D32"><title>2026-06-28: 2h 37m</title></rect><rect x="376" y="49" width="10" height="10" rx="2" ry="2" fill="#2F7D32"><title>2026-06-29: 5h 22m</title></rect><rect x="376" y="62" width="10" height="10" rx="2" ry="2" fill="#2F7D32"><title>2026-06-30: 1h 30m</title></rect><rect x="376" y="75" width="10" height="10" rx="2" ry="2" fill="#69C16E"><title>2026-07-01: 11m</title></rect><rect x="376" y="88" width="10" height="10" rx="2" ry="2" fill="#69C16E"><title>2026-07-02: 19m</title></rect><rect x="376" y="101" width="10" height="10" rx="2" ry="2" fill="#2F7D32"><title>2026-07-03: 2h 26m</title></rect><rect x="376" y="114" width="10" height="10" rx="2" ry="2" fill="#2F7D32"><title>2026-07-04: 4h 20m</title></rect><rect x="389" y="36" width="10" height="10" rx="2" ry="2" fill="#2F7D32"><title>2026-07-05: 1h 11m</title></rect><rect x="389" y="49" width="10" height="10" rx="2" ry="2" fill="#2F7D32"><title>2026-07-06: 1h 5m</title></rect><rect x="389" y="62" width="10" height="10" rx="2" ry="2" fill="#2F7D32"><title>2026-07-07: 1h</title></rect><rect x="389" y="75" width="10" height="10" rx="2" ry="2" fill="#69C16E"><title>2026-07-08: 19m</title></rect><rect x="389" y="88" width="10" height="10" rx="2" ry="2" fill="#549F57"><title>2026-07-09: 50m</title></rect><rect x="389" y="101" width="10" height="10" rx="2" ry="2" fill="#69C16E"><title>2026-07-10: 27m</title></rect><rect x="389" y="114" width="10" height="10" rx="2" ry="2" fill="#2F7D32"><title>2026-07-11: 1h 34m</title></rect><rect x="402" y="36" width="10" height="10" rx="2" ry="2" fill="#2F7D32"><title>2026-07-12: 1h 12m</title></rect><rect x="402" y="49" width="10" height="10" rx="2" ry="2" fill="#2F7D32"><title>2026-07-13: 1h 24m</title></rect><rect x="402" y="62" width="10" height="10" rx="2" ry="2" fill="#549F57"><title>2026-07-14: 59m</title></rect><rect x="402" y="75" width="10" height="10" rx="2" ry="2" fill="#549F57"><title>2026-07-15: 43m</title></rect><rect x="402" y="88" width="10" height="10" rx="2" ry="2" fill="#69C16E"><title>2026-07-16: 28m</title></rect><rect x="402" y="101" width="10" height="10" rx="2" ry="2" fill="#2F7D32"><title>2026-07-17: 1h 18m</title></rect><rect x="402" y="114" width="10" height="10" rx="2" ry="2" fill="#2F7D32"><title>2026-07-18: 5h</title></rect><rect x="415" y="36" width="10" height="10" rx="2" ry="2" fill="#2F7D32"><title>2026-07-19: 2h 34m</title></rect><rect x="415" y="49" width="10" height="10" rx="2" ry="2" fill="#549F57"><title>2026-07-20: 49m</title></rect><rect x="415" y="62" width="10" height="10" rx="2" ry="2" fill="#EBEDF0"><title>2026-07-21: 0m</title></rect><rect x="415" y="75" width="10" height="10" rx="2" ry="2" fill="#EBEDF0"><title>2026-07-22: 0m</title></rect><rect x="415" y="88" width="10" height="10" rx="2" ry="2" fill="#EBEDF0"><title>2026-07-23: 0m</title></rect><rect x="415" y="101" width="10" height="10" rx="2" ry="2" fill="#EBEDF0"><title>2026-07-24: 0m</title></rect><rect x="415" y="114" width="10" height="10" rx="2" ry="2" fill="#EBEDF0"><title>2026-07-25: 0m</title></rect><rect x="428" y="36" width="10" height="10" rx="2" ry="2" fill="#EBEDF0"><title>2026-07-26: 0m</title></rect><rect x="428" y="49" width="10" height="10" rx="2" ry="2" fill="#EBEDF0"><title>2026-07-27: 0m</title></rect><rect x="428" y="62" width="10" height="10" rx="2" ry="2" fill="#EBEDF0"><title>2026-07-28: 0m</title></rect><rect x="428" y="75" width="10" height="10" rx="2" ry="2" fill="#EBEDF0"><title>2026-07-29: 0m</title></rect><rect x="428" y="88" width="10" height="10" rx="2" ry="2" fill="#EBEDF0"><title>2026-07-30: 0m</title></rect><rect x="428" y="101" width="10" height="10" rx="2" ry="2" fill="#EBEDF0"><title>2026-07-31: 0m</title></rect><rect x="428" y="114" width="10" height="10" rx="2" ry="2" fill="#EBEDF0"><title>2026-08-01: 0m</title></rect><rect x="441" y="36" width="10" height="10" rx="2" ry="2" fill="#EBEDF0"><title>2026-08-02: 0m</title></rect><rect x="441" y="49" width="10" height="10" rx="2" ry="2" fill="#EBEDF0"><title>2026-08-03: 0m</title></rect><rect x="441" y="62" width="10" height="10" rx="2" ry="2" fill="#EBEDF0"><title>2026-08-04: 0m</title></rect><rect x="441" y="75" width="10" height="10" rx="2" ry="2" fill="#EBEDF0"><title>2026-08-05: 0m</title></rect><rect x="441" y="88" width="10" height="10" rx="2" ry="2" fill="#EBEDF0"><title>2026-08-06: 0m</title></rect><rect x="441" y="101" width="10" height="10" rx="2" ry="2" fill="#EBEDF0"><title>2026-08-07: 0m</title></rect><rect x="441" y="114" width="10" height="10" rx="2" ry="2" fill="#EBEDF0"><title>2026-08-08: 0m</title></rect><rect x="454" y="36" width="10" height="10" rx="2" ry="2" fill="#EBEDF0"><title>2026-08-09: 0m</title></rect><rect x="454" y="49" width="10" height="10" rx="2" ry="2" fill="#EBEDF0"><title>2026-08-10: 0m</title></rect><rect x="454" y="62" width="10" height="10" rx="2" ry="2" fill="#EBEDF0"><title>2026-08-11: 0m</title></rect><rect x="454" y="75" width="10" height="10" rx="2" ry="2" fill="#EBEDF0"><title>2026-08-12: 0m</title></rect><rect x="454" y="88" width="10" height="10" rx="2" ry="2" fill="#EBEDF0"><title>2026-08-13: 0m</title></rect><rect x="454" y="101" width="10" height="10" rx="2" ry="2" fill="#EBEDF0"><title>2026-08-14: 0m</title></rect><rect x="454" y="114" width="10" height="10" rx="2" ry="2" fill="#EBEDF0"><title>2026-08-15: 0m</title></rect><rect x="467" y="36" width="10" height="10" rx="2" ry="2" fill="#EBEDF0"><title>2026-08-16: 0m</title></rect><rect x="467" y="49" width="10" height="10" rx="2" ry="2" fill="#EBEDF0"><title>2026-08-17: 0m</title></rect><rect x="467" y="62" width="10" height="10" rx="2" ry="2" fill="#EBEDF0"><title>2026-08-18: 0m</title></rect><rect x="467" y="75" width="10" height="10" rx="2" ry="2" fill="#EBEDF0"><title>2026-08-19: 0m</title></rect><rect x="467" y="88" width="10" height="10" rx="2" ry="2" fill="#EBEDF0"><title>2026-08-20: 0m</title></rect><rect x="467" y="101" width="10" height="10" rx="2" ry="2" fill="#EBEDF0"><title>2026-08-21: 0m</title></rect><rect x="467" y="114" width="10" height="10" rx="2" ry="2" fill="#EBEDF0"><title>2026-08-22: 0m</title></rect><rect x="480" y="36" width="10" height="10" rx="2" ry="2" fill="#EBEDF0"><title>2026-08-23: 0m</title></rect><rect x="480" y="49" width="10" height="10" rx="2" ry="2" fill="#EBEDF0"><title>2026-08-24: 0m</title></rect><rect x="480" y="62" width="10" height="10" rx="2" ry="2" fill="#EBEDF0"><title>2026-08-25: 0m</title></rect><rect x="480" y="75" width="10" height="10" rx="2" ry="2" fill="#EBEDF0"><title>2026-08-26: 0m</title></rect><rect x="480" y="88" width="10" height="10" rx="2" ry="2" fill="#EBEDF0"><title>2026-08-27: 0m</title></rect><rect x="480" y="101" width="10" height="10" rx="2" ry="2" fill="#EBEDF0"><title>2026-08-28: 0m</title></rect><rect x="480" y="114" width="10" height="10" rx="2" ry="2" fill="#EBEDF0"><title>2026-08-29: 0m</title></rect><rect x="493" y="36" width="10" height="10" rx="2" ry="2" fill="#EBEDF0"><title>2026-08-30: 0m</title></rect><rect x="493" y="49" width="10" height="10" rx="2" ry="2" fill="#EBEDF0"><title>2026-08-31: 0m</title></rect><rect x="493" y="62" width="10" height="10" rx="2" ry="2" fill="#EBEDF0"><title>2026-09-01: 0m</title></rect><rect x="493" y="75" width="10" height="10" rx="2" ry="2" fill="#EBEDF0"><title>2026-09-02: 0m</title></rect><rect x="493" y="88" width="10" height="10" rx="2" ry="2" fill="#EBEDF0"><title>2026-09-03: 0m</title></rect><rect x="493" y="101" width="10" height="10" rx="2" ry="2" fill="#EBEDF0"><title>2026-09-04: 0m</title></rect><rect x="493" y="114" width="10" height="10" rx="2" ry="2" fill="#EBEDF0"><title>2026-09-05: 0m</title></rect><rect x="506" y="36" width="10" height="10" rx="2" ry="2" fill="#EBEDF0"><title>2026-09-06: 0m</title></rect><rect x="506" y="49" width="10" height="10" rx="2" ry="2" fill="#EBEDF0"><title>2026-09-07: 0m</title></rect><rect x="506" y="62" width="10" height="10" rx="2" ry="2" fill="#EBEDF0"><title>2026-09-08: 0m</title></rect><rect x="506" y="75" width="10" height="10" rx="2" ry="2" fill="#EBEDF0"><title>2026-09-09: 0m</title></rect><rect x="506" y="88" width="10" height="10" rx="2" ry="2" fill="#EBEDF0"><title>2026-09-10: 0m</title></rect><rect x="506" y="101" width="10" height="10" rx="2" ry="2" fill="#EBEDF0"><title>2026-09-11: 0m</title></rect><rect x="506" y="114" width="10" height="10" rx="2" ry="2" fill="#EBEDF0"><title>2026-09-12: 0m</title></rect><rect x="519" y="36" width="10" height="10" rx="2" ry="2" fill="#EBEDF0"><title>2026-09-13: 0m</title></rect><rect x="519" y="49" width="10" height="10" rx="2" ry="2" fill="#EBEDF0"><title>2026-09-14: 0m</title></rect><rect x="519" y="62" width="10" height="10" rx="2" ry="2" fill="#EBEDF0"><title>2026-09-15: 0m</title></rect><rect x="519" y="75" width="10" height="10" rx="2" ry="2" fill="#EBEDF0"><title>2026-09-16: 0m</title></rect><rect x="519" y="88" width="10" height="10" rx="2" ry="2" fill="#EBEDF0"><title>2026-09-17: 0m</title></rect><rect x="519" y="101" width="10" height="10" rx="2" ry="2" fill="#EBEDF0"><title>2026-09-18: 0m</title></rect><rect x="519" y="114" width="10" height="10" rx="2" ry="2" fill="#EBEDF0"><title>2026-09-19: 0m</title></rect><rect x="532" y="36" width="10" height="10" rx="2" ry="2" fill="#EBEDF0"><title>2026-09-20: 0m</title></rect><rect x="532" y="49" width="10" height="10" rx="2" ry="2" fill="#EBEDF0"><title>2026-09-21: 0m</title></rect><rect x="532" y="62" width="10" height="10" rx="2" ry="2" fill="#EBEDF0"><title>2026-09-22: 0m</title></rect><rect x="532" y="75" width="10" height="10" rx="2" ry="2" fill="#EBEDF0"><title>2026-09-23: 0m</title></rect><rect x="532" y="88" width="10" height="10" rx="2" ry="2" fill="#EBEDF0"><title>2026-09-24: 0m</title></rect><rect x="532" y="101" width="10" height="10" rx="2" ry="2" fill="#EBEDF0"><title>2026-09-25: 0m</title></rect><rect x="532" y="114" width="10" height="10" rx="2" ry="2" fill="#EBEDF0"><title>2026-09-26: 0m</title></rect><rect x="545" y="36" width="10" height="10" rx="2" ry="2" fill="#EBEDF0"><title>2026-09-27: 0m</title></rect><rect x="545" y="49" width="10" height="10" rx="2" ry="2" fill="#EBEDF0"><title>2026-09-28: 0m</title></rect><rect x="545" y="62" width="10" height="10" rx="2" ry="2" fill="#EBEDF0"><title>2026-09-29: 0m</title></rect><rect x="545" y="75" width="10" height="10" rx="2" ry="2" fill="#EBEDF0"><title>2026-09-30: 0m</title></rect><rect x="545" y="88" width="10" height="10" rx="2" ry="2" fill="#EBEDF0"><title>2026-10-01: 0m</title></rect><rect x="545" y="101" width="10" height="10" rx="2" ry="2" fill="#EBEDF0"><title>2026-10-02: 0m</title></rect><rect x="545" y="114" width="10" height="10" rx="2" ry="2" fill="#EBEDF0"><title>2026-10-03: 0m</title></rect><rect x="558" y="36" width="10" height="10" rx="2" ry="2" fill="#EBEDF0"><title>2026-10-04: 0m</title></rect><rect x="558" y="49" width="10" height="10" rx="2" ry="2" fill="#EBEDF0"><title>2026-10-05: 0m</title></rect><rect x="558" y="62" width="10" height="10" rx="2" ry="2" fill="#EBEDF0"><title>2026-10-06: 0m</title></rect><rect x="558" y="75" width="10" height="10" rx="2" ry="2" fill="#EBEDF0"><title>2026-10-07: 0m</title></rect><rect x="558" y="88" width="10" height="10" rx="2" ry="2" fill="#EBEDF0"><title>2026-10-08: 0m</title></rect><rect x="558" y="101" width="10" height="10" rx="2" ry="2" fill="#EBEDF0"><title>2026-10-09: 0m</title></rect><rect x="558" y="114" width="10" height="10" rx="2" ry="2" fill="#EBEDF0"><title>2026-10-10: 0m</title></rect><rect x="571" y="36" width="10" height="10" rx="2" ry="2" fill="#EBEDF0"><title>2026-10-11: 0m</title></rect><rect x="571" y="49" width="10" height="10" rx="2" ry="2" fill="#EBEDF0"><title>2026-10-12: 0m</title></rect><rect x="571" y="62" width="10" height="10" rx="2" ry="2" fill="#EBEDF0"><title>2026-10-13: 0m</title></rect><rect x="571" y="75" width="10" height="10" rx="2" ry="2" fill="#EBEDF0"><title>2026-10-14: 0m</title></rect><rect x="571" y="88" width="10" height="10" rx="2" ry="2" fill="#EBEDF0"><title>2026-10-15: 0m</title></rect><rect x="571" y="101" width="10" height="10" rx="2" ry="2" fill="#EBEDF0"><title>2026-10-16: 0m</title></rect><rect x="571" y="114" width="10" height="10" rx="2" ry="2" fill="#EBEDF0"><title>2026-10-17: 0m</title></rect><rect x="584" y="36" width="10" height="10" rx="2" ry="2" fill="#EBEDF0"><title>2026-10-18: 0m</title></rect><rect x="584" y="49" width="10" height="10" rx="2" ry="2" fill="#EBEDF0"><title>2026-10-19: 0m</title></rect><rect x="584" y="62" width="10" height="10" rx="2" ry="2" fill="#EBEDF0"><title>2026-10-20: 0m</title></rect><rect x="584" y="75" width="10" height="10" rx="2" ry="2" fill="#EBEDF0"><title>2026-10-21: 0m</title></rect><rect x="584" y="88" width="10" height="10" rx="2" ry="2" fill="#EBEDF0"><title>2026-10-22: 0m</title></rect><rect x="584" y="101" width="10" height="10" rx="2" ry="2" fill="#EBEDF0"><title>2026-10-23: 0m</title></rect><rect x="584" y="114" width="10" height="10" rx="2" ry="2" fill="#EBEDF0"><title>2026-10-24: 0m</title></rect><rect x="597" y="36" width="10" height="10" rx="2" ry="2" fill="#EBEDF0"><title>2026-10-25: 0m</title></rect><rect x="597" y="49" width="10" height="10" rx="2" ry="2" fill="#EBEDF0"><title>2026-10-26: 0m</title></rect><rect x="597" y="62" width="10" height="10" rx="2" ry="2" fill="#EBEDF0"><title>2026-10-27: 0m</title></rect><rect x="597" y="75" width="10" height="10" rx="2" ry="2" fill="#EBEDF0"><title>2026-10-28: 0m</title></rect><rect x="597" y="88" width="10" height="10" rx="2" ry="2" fill="#EBEDF0"><title>2026-10-29: 0m</title></rect><rect x="597" y="101" width="10" height="10" rx="2" ry="2" fill="#EBEDF0"><title>2026-10-30: 0m</title></rect><rect x="597" y="114" width="10" height="10" rx="2" ry="2" fill="#EBEDF0"><title>2026-10-31: 0m</title></rect><rect x="610" y="36" width="10" height="10" rx="2" ry="2" fill="#EBEDF0"><title>2026-11-01: 0m</title></rect><rect x="610" y="49" width="10" height="10" rx="2" ry="2" fill="#EBEDF0"><title>2026-11-02: 0m</title></rect><rect x="610" y="62" width="10" height="10" rx="2" ry="2" fill="#EBEDF0"><title>2026-11-03: 0m</title></rect><rect x="610" y="75" width="10" height="10" rx="2" ry="2" fill="#EBEDF0"><title>2026-11-04: 0m</title></rect><rect x="610" y="88" width="10" height="10" rx="2" ry="2" fill="#EBEDF0"><title>2026-11-05: 0m</title></rect><rect x="610" y="101" width="10" height="10" rx="2" ry="2" fill="#EBEDF0"><title>2026-11-06: 0m</title></rect><rect x="610" y="114" width="10" height="10" rx="2" ry="2" fill="#EBEDF0"><title>2026-11-07: 0m</title></rect><rect x="623" y="36" width="10" height="10" rx="2" ry="2" fill="#EBEDF0"><title>2026-11-08: 0m</title></rect><rect x="623" y="49" width="10" height="10" rx="2" ry="2" fill="#EBEDF0"><title>2026-11-09: 0m</title></rect><rect x="623" y="62" width="10" height="10" rx="2" ry="2" fill="#EBEDF0"><title>2026-11-10: 0m</title></rect><rect x="623" y="75" width="10" height="10" rx="2" ry="2" fill="#EBEDF0"><title>2026-11-11: 0m</title></rect><rect x="623" y="88" width="10" height="10" rx="2" ry="2" fill="#EBEDF0"><title>2026-11-12: 0m</title></rect><rect x="623" y="101" width="10" height="10" rx="2" ry="2" fill="#EBEDF0"><title>2026-11-13: 0m</title></rect><rect x="623" y="114" width="10" height="10" rx="2" ry="2" fill="#EBEDF0"><title>2026-11-14: 0m</title></rect><rect x="636" y="36" width="10" height="10" rx="2" ry="2" fill="#EBEDF0"><title>2026-11-15: 0m</title></rect><rect x="636" y="49" width="10" height="10" rx="2" ry="2" fill="#EBEDF0"><title>2026-11-16: 0m</title></rect><rect x="636" y="62" width="10" height="10" rx="2" ry="2" fill="#EBEDF0"><title>2026-11-17: 0m</title></rect><rect x="636" y="75" width="10" height="10" rx="2" ry="2" fill="#EBEDF0"><title>2026-11-18: 0m</title></rect><rect x="636" y="88" width="10" height="10" rx="2" ry="2" fill="#EBEDF0"><title>2026-11-19: 0m</title></rect><rect x="636" y="101" width="10" height="10" rx="2" ry="2" fill="#EBEDF0"><title>2026-11-20: 0m</title></rect><rect x="636" y="114" width="10" height="10" rx="2" ry="2" fill="#EBEDF0"><title>2026-11-21: 0m</title></rect><rect x="649" y="36" width="10" height="10" rx="2" ry="2" fill="#EBEDF0"><title>2026-11-22: 0m</title></rect><rect x="649" y="49" width="10" height="10" rx="2" ry="2" fill="#EBEDF0"><title>2026-11-23: 0m</title></rect><rect x="649" y="62" width="10" height="10" rx="2" ry="2" fill="#EBEDF0"><title>2026-11-24: 0m</title></rect><rect x="649" y="75" width="10" height="10" rx="2" ry="2" fill="#EBEDF0"><title>2026-11-25: 0m</title></rect><rect x="649" y="88" width="10" height="10" rx="2" ry="2" fill="#EBEDF0"><title>2026-11-26: 0m</title></rect><rect x="649" y="101" width="10" height="10" rx="2" ry="2" fill="#EBEDF0"><title>2026-11-27: 0m</title></rect><rect x="649" y="114" width="10" height="10" rx="2" ry="2" fill="#EBEDF0"><title>2026-11-28: 0m</title></rect><rect x="662" y="36" width="10" height="10" rx="2" ry="2" fill="#EBEDF0"><title>2026-11-29: 0m</title></rect><rect x="662" y="49" width="10" height="10" rx="2" ry="2" fill="#EBEDF0"><title>2026-11-30: 0m</title></rect><rect x="662" y="62" width="10" height="10" rx="2" ry="2" fill="#EBEDF0"><title>2026-12-01: 0m</title></rect><rect x="662" y="75" width="10" height="10" rx="2" ry="2" fill="#EBEDF0"><title>2026-12-02: 0m</title></rect><rect x="662" y="88" width="10" height="10" rx="2" ry="2" fill="#EBEDF0"><title>2026-12-03: 0m</title></rect><rect x="662" y="101" width="10" height="10" rx="2" ry="2" fill="#EBEDF0"><title>2026-12-04: 0m</title></rect><rect x="662" y="114" width="10" height="10" rx="2" ry="2" fill="#EBEDF0"><title>2026-12-05: 0m</title></rect><rect x="675" y="36" width="10" height="10" rx="2" ry="2" fill="#EBEDF0"><title>2026-12-06: 0m</title></rect><rect x="675" y="49" width="10" height="10" rx="2" ry="2" fill="#EBEDF0"><title>2026-12-07: 0m</title></rect><rect x="675" y="62" width="10" height="10" rx="2" ry="2" fill="#EBEDF0"><title>2026-12-08: 0m</title></rect><rect x="675" y="75" width="10" height="10" rx="2" ry="2" fill="#EBEDF0"><title>2026-12-09: 0m</title></rect><rect x="675" y="88" width="10" height="10" rx="2" ry="2" fill="#EBEDF0"><title>2026-12-10: 0m</title></rect><rect x="675" y="101" width="10" height="10" rx="2" ry="2" fill="#EBEDF0"><title>2026-12-11: 0m</title></rect><rect x="675" y="114" width="10" height="10" rx="2" ry="2" fill="#EBEDF0"><title>2026-12-12: 0m</title></rect><rect x="688" y="36" width="10" height="10" rx="2" ry="2" fill="#EBEDF0"><title>2026-12-13: 0m</title></rect><rect x="688" y="49" width="10" height="10" rx="2" ry="2" fill="#EBEDF0"><title>2026-12-14: 0m</title></rect><rect x="688" y="62" width="10" height="10" rx="2" ry="2" fill="#EBEDF0"><title>2026-12-15: 0m</title></rect><rect x="688" y="75" width="10" height="10" rx="2" ry="2" fill="#EBEDF0"><title>2026-12-16: 0m</title></rect><rect x="688" y="88" width="10" height="10" rx="2" ry="2" fill="#EBEDF0"><title>2026-12-17: 0m</title></rect><rect x="688" y="101" width="10" height="10" rx="2" ry="2" fill="#EBEDF0"><title>2026-12-18: 0m</title></rect><rect x="688" y="114" width="10" height="10" rx="2" ry="2" fill="#EBEDF0"><title>2026-12-19: 0m</title></rect><rect x="701" y="36" width="10" height="10" rx="2" ry="2" fill="#EBEDF0"><title>2026-12-20: 0m</title></rect><rect x="701" y="49" width="10" height="10" rx="2" ry="2" fill="#EBEDF0"><title>2026-12-21: 0m</title></rect><rect x="701" y="62" width="10" height="10" rx="2" ry="2" fill="#EBEDF0"><title>2026-12-22: 0m</title></rect><rect x="701" y="75" width="10" height="10" rx="2" ry="2" fill="#EBEDF0"><title>2026-12-23: 0m</title></rect><rect x="701" y="88" width="10" height="10" rx="2" ry="2" fill="#EBEDF0"><title>2026-12-24: 0m</title></rect><rect x="701" y="101" width="10" height="10" rx="2" ry="2" fill="#EBEDF0"><title>2026-12-25: 0m</title></rect><rect x="701" y="114" width="10" height="10" rx="2" ry="2" fill="#EBEDF0"><title>2026-12-26: 0m</title></rect><rect x="714" y="36" width="10" height="10" rx="2" ry="2" fill="#EBEDF0"><title>2026-12-27: 0m</title></rect><rect x="714" y="49" width="10" height="10" rx="2" ry="2" fill="#EBEDF0"><title>2026-12-28: 0m</title></rect><rect x="714" y="62" width="10" height="10" rx="2" ry="2" fill="#EBEDF0"><title>2026-12-29: 0m</title></rect><rect x="714" y="75" width="10" height="10" rx="2" ry="2" fill="#EBEDF0"><title>2026-12-30: 0m</title></rect><rect x="714" y="88" width="10" height="10" rx="2" ry="2" fill="#EBEDF0"><title>2026-12-31: 0m</title></rect><rect x="714" y="101" width="10" height="10" rx="2" ry="2" fill="#FFFFFF"><title>2027-01-01: 0m</title></rect><rect x="714" y="114" width="10" height="10" rx="2" ry="2" fill="#FFFFFF"><title>2027-01-02: 0m</title></rect></g></svg>